#N canvas 0 23 719 605 10;
#X floatatom 27 70 5 0 0 0 - - -;
#X floatatom 181 80 5 0 0 0 - - -;
#X obj 121 142 / 127;
#X floatatom 132 178 5 0 0 0 - - -;
#X text 75 7 MIDI input testing;
#X obj 257 24 loadbang;
#X msg 257 50 hw 0 0 0;
#X obj 257 77 send bela_setMidi;
#X obj 104 38 notein;
#X obj 207 219 select 60 62 64 65 67 69 71 72;
#X msg 168 248 10;
#X msg 207 249 30;
#X msg 243 248 50;
#X floatatom 249 314 5 0 0 0 - - -;
#X obj 249 290 value note_angle;
#X obj 92 394 expr note_angle;
#X msg 280 248 70;
#X msg 316 248 90;
#X msg 351 248 110;
#X msg 386 248 130;
#X msg 423 249 150;
#X msg 466 250 0;
#X obj 93 333 select 1;
#X obj 131 421 print note_angle;
#X obj 392 66 s bela_setDigital;
#X obj 392 27 loadbang;
#X obj 250 471 dac~ 20;
#X obj 94 457 servo_angle;
#X obj 249 426 servo_angle;
#X obj 95 489 dac~ 18;
#X msg 392 47 out 18 ~ \, out 20 ~;
#X obj 392 359 loadbang;
#X msg 304 393 0;
#X msg 251 373 100;
#X obj 305 354 delay 100;
#X obj 379 110 midiin;
#X floatatom 384 147 5 0 0 0 - - -;
#X floatatom 444 144 5 0 0 0 - - -;
#X obj 369 171 print MIDI-1;
#X obj 466 169 print MIDI-2;
#X obj 269 147 select 145 129;
#X obj 211 180 expr note;
#X obj 42 104 v note;
#X floatatom 249 201 5 0 0 0 - - -;
#X obj 287 173 delay 10;
#X obj 93 287 expr $i1 > 0;
#X connect 2 0 3 0;
#X connect 5 0 6 0;
#X connect 6 0 7 0;
#X connect 8 0 0 0;
#X connect 8 0 42 0;
#X connect 8 1 1 0;
#X connect 8 1 2 0;
#X connect 8 1 45 0;
#X connect 9 0 10 0;
#X connect 9 1 11 0;
#X connect 9 2 12 0;
#X connect 9 3 16 0;
#X connect 9 4 17 0;
#X connect 9 5 18 0;
#X connect 9 6 19 0;
#X connect 9 7 20 0;
#X connect 9 8 21 0;
#X connect 10 0 14 0;
#X connect 11 0 14 0;
#X connect 12 0 14 0;
#X connect 14 0 13 0;
#X connect 15 0 23 0;
#X connect 15 0 27 0;
#X connect 16 0 14 0;
#X connect 17 0 14 0;
#X connect 18 0 14 0;
#X connect 19 0 14 0;
#X connect 20 0 14 0;
#X connect 21 0 14 0;
#X connect 22 0 15 0;
#X connect 22 0 33 0;
#X connect 22 0 34 0;
#X connect 25 0 30 0;
#X connect 27 0 29 0;
#X connect 28 0 26 0;
#X connect 30 0 24 0;
#X connect 31 0 32 0;
#X connect 32 0 28 0;
#X connect 34 0 32 0;
#X connect 35 0 36 0;
#X connect 35 0 40 0;
#X connect 35 1 37 0;
#X connect 40 0 44 0;
#X connect 41 0 9 0;
#X connect 41 0 43 0;
#X connect 44 0 41 0;
#X connect 45 0 22 0;
