#N canvas 92 67 494 472 10;
#X obj 133 81 loadbang;
#X obj 101 304 * 44100;
#X obj 101 324 / 2048;
#X obj 101 344 ftom;
#X obj 101 386 int;
#X obj 101 365 + 0.499999;
#X obj 101 155 array max spectrum_dB;
#X msg 101 126 12;
#X msg 162 125 13;
#X obj 101 238 select 1;
#X obj 264 176 v index;
#X obj 101 282 expr index;
#X obj 101 197 tgl 15 0 empty empty empty 17 7 0 10 -262144 -1 -1 0
1;
#X obj 101 177 expr if ($f1 > 0 \, 1 \, 0);
#X obj 101 217 change;
#X obj 101 259 delay 100;
#X text 241 126 Find max point within indexes 12 and 24 (approx C3
and C4), f 21;
#X text 261 193 index of peak value;
#X text 195 74 Initialize range of indexes to search, f 19;
#X text 174 287 Convert index to frequency (in Hz), f 14;
#X text 176 350 Convert to MIDI note number and round to integer,
f 17;
#X text 164 219 Send on rising change of amplitude (dB > 0), f 22
;
#X obj 101 425 outlet;
#X obj 16 81 r frame_trigger;
#X text 135 16 Really basic (noisy) FFT-based pitch tracker, f 25
;
#X connect 0 0 7 0;
#X connect 0 0 8 0;
#X connect 1 0 2 0;
#X connect 2 0 3 0;
#X connect 3 0 5 0;
#X connect 4 0 22 0;
#X connect 5 0 4 0;
#X connect 6 0 13 0;
#X connect 6 1 10 0;
#X connect 7 0 6 0;
#X connect 8 0 6 1;
#X connect 9 0 15 0;
#X connect 11 0 1 0;
#X connect 12 0 14 0;
#X connect 13 0 12 0;
#X connect 14 0 9 0;
#X connect 15 0 11 0;
#X connect 23 0 6 0;
